<svg width="36" height="36" viewBox="0 0 36 36" fill="none" xmlns="http://www.w3.org/2000/svg">
<rect width="36" height="36" rx="18" fill="#3B52CA" fill-opacity="0.08"/>
<path d="M12.7071 11.2929C12.3166 10.9024 11.6834 10.9024 11.2929 11.2929C10.9024 11.6834 10.9024 12.3166 11.2929 12.7071L12.7071 11.2929ZM22.9629 24.3771C23.3534 24.7676 23.9866 24.7676 24.3771 24.3771C24.7676 23.9866 24.7676 23.3534 24.3771 22.9629L22.9629 24.3771ZM11.2929 22.9629C10.9024 23.3534 10.9024 23.9866 11.2929 24.3771C11.6834 24.7676 12.3166 24.7676 12.7071 24.3771L11.2929 22.9629ZM24.3771 12.7071C24.7676 12.3166 24.7676 11.6834 24.3771 11.2929C23.9866 10.9024 23.3534 10.9024 22.9629 11.2929L24.3771 12.7071ZM11.2929 12.7071L17.1279 18.5421L18.5421 17.1279L12.7071 11.2929L11.2929 12.7071ZM17.1279 18.5421L22.9629 24.3771L24.3771 22.9629L18.5421 17.1279L17.1279 18.5421ZM12.7071 24.3771L18.5421 18.5421L17.1279 17.1279L11.2929 22.9629L12.7071 24.3771ZM18.5421 18.5421L24.3771 12.7071L22.9629 11.2929L17.1279 17.1279L18.5421 18.5421Z" fill="#3B52CA"/>
</svg>
