<svg fill="none" height="17" viewBox="0 0 20 17" width="20" xmlns="http://www.w3.org/2000/svg">

    <path
        d="m16.4997 16.8334-3.5-3.4584c-.4861.1528-.9756.2675-1.4684.3442-.4933.0761-1.0038.1142-1.53163.1142-2.09722 0-3.96527-.5797-5.60416-1.7392-1.63889-1.16-2.82639-2.6636-3.562502-4.51083.291662-.73611.659722-1.42027 1.104162-2.0525.44445-.63166.95139-1.1975 1.52084-1.6975l-2.29167-2.33333 1.16667-1.166666 15.33329 15.333326zm-6.50003-5.5c.15283 0 .29503-.007.42663-.0209.1323-.0138.2748-.0416.4275-.0833l-4.49996-4.49999c-.04167.15278-.06944.29527-.08333.4275-.01389.13166-.02084.27389-.02084.42666 0 1.04167.36445 1.92723 1.09334 2.65663.72944.7289 1.615 1.0934 2.65666 1.0934zm6.08333.375-2.6458-2.62503c.0972-.23611.1736-.47555.2291-.71833.0556-.24333.0834-.50389.0834-.78167 0-1.04166-.3645-1.92722-1.0934-2.65666-.7294-.72889-1.615-1.09334-2.65663-1.09334-.27777 0-.53833.02778-.78166.08334-.24278.05555-.48223.13889-.71834.25l-2.125-2.125c.56945-.23611 1.15278-.41334 1.75-.53167.59723-.11778 1.22223-.17667 1.875-.17667 2.09723 0 3.96533.57973 5.60413 1.73917 1.6389 1.16 2.8264 2.66361 3.5625 4.51083-.3194.81945-.7394 1.58-1.26 2.28167-.5211.70116-1.1289 1.31556-1.8233 1.84336zm-3.8542-3.83336-2.49996-2.5c.38886-.06944.74666-.03833 1.07336.09333.3261.13223.6072.32334.8433.57334s.4064.53833.5108.865c.1039.32611.1281.64889.0725.96833z"
        fill="#acb5bc" />
</svg>