<?xml version="1.0" encoding="utf-8"?>
<!-- Generator: Adobe Illustrator 25.2.3, SVG Export Plug-In . SVG Version: 6.00 Build 0)  -->
<svg version="1.1" id="Слой_1" xmlns="http://www.w3.org/2000/svg" xmlns:xlink="http://www.w3.org/1999/xlink" x="0px" y="0px"
	 viewBox="0 0 20 17" style="enable-background:new 0 0 20 17;" xml:space="preserve">
<style type="text/css">
	.st0{fill:#ACB5BC;}
</style>
<path class="st0" d="M10,11.3c1,0,1.9-0.4,2.7-1.1c0.7-0.7,1.1-1.6,1.1-2.7c0-1-0.4-1.9-1.1-2.7c-0.8-0.6-1.7-1-2.7-1
	S8.1,4.2,7.3,4.9C6.6,5.6,6.2,6.5,6.2,7.6c0,1,0.4,1.9,1.1,2.7C8.1,11,9,11.3,10,11.3z M10,9.8c-0.6,0-1.2-0.2-1.6-0.7
	C8,8.7,7.7,8.2,7.7,7.6S8,6.4,8.4,6s1-0.7,1.6-0.7s1.2,0.2,1.6,0.7c0.4,0.4,0.7,1,0.7,1.6s-0.2,1.2-0.7,1.6
	C11.2,9.6,10.6,9.8,10,9.8z M10,13.8c-2,0-3.9-0.6-5.5-1.7C2.8,11,1.6,9.5,0.8,7.6c0.8-1.9,2-3.4,3.6-4.6C6.1,1.9,8,1.3,10,1.3
	s3.9,0.6,5.5,1.7c1.7,1.1,2.9,2.6,3.6,4.6c-0.8,1.9-2,3.4-3.6,4.6C13.9,13.3,12,13.8,10,13.8z"/>
</svg>
